# xmcd
#
# Track frame offsets:
#	150
#	12314
#	26199
#	43132
#	50703
#	66898
#	84058
#	95319
#	114231
#	133346
#	150278
#
# Disc length: 2153 seconds
# Revision: 0
# Processed by: cddbd v1.5.2PL0 Copyright (c) Steve Scherf et al.
# Submitted via: dBpowerAMP V12.0
#
DISCID=8708670b
DTITLE=The Boxcar Lilies - Sugar Shack
DYEAR=2013
DGENRE=Americana
TTITLE0=Lightnin'
TTITLE1=Six Ways To Sunday
TTITLE2=If I Needed You
TTITLE3=Sugar Shack
TTITLE4=In This Valley
TTITLE5=Good Fortune
TTITLE6=Don't Send Me Up To Heaven
TTITLE7=Love Comes Back
TTITLE8=Sunday Best
TTITLE9=West County Line
TTITLE10=That Lonesome Road
EXTD=
EXTT0=
EXTT1=
EXTT2=
EXTT3=
EXTT4=
EXTT5=
EXTT6=
EXTT7=
EXTT8=
EXTT9=
EXTT10=
PLAYORDER=
